<mxfile host="Electron" modified="2023-06-29T05:15:27.697Z" agent="Mozilla/5.0 (Windows NT 10.0; Win64; x64) AppleWebKit/537.36 (KHTML, like Gecko) draw.io/21.5.1 Chrome/112.0.5615.204 Electron/24.6.0 Safari/537.36" etag="6-AIGIZXZB_c_lyWbl3T" version="21.5.1" type="device">
  <diagram name="Сторінка-1" id="N4K76F9bGb0uiW8S71nY">
    <mxGraphModel dx="1098" dy="828" grid="1" gridSize="10" guides="1" tooltips="1" connect="1" arrows="1" fold="1" page="1" pageScale="1" pageWidth="827" pageHeight="1169" math="0" shadow="0">
      <root>
        <mxCell id="0" />
        <mxCell id="1" parent="0" />
        <mxCell id="pnc7bbZg3f2_Gpb_w_wm-1" value="Actor" style="shape=umlActor;verticalLabelPosition=bottom;verticalAlign=top;html=1;outlineConnect=0;" vertex="1" parent="1">
          <mxGeometry x="650" y="390" width="30" height="60" as="geometry" />
        </mxCell>
        <mxCell id="pnc7bbZg3f2_Gpb_w_wm-2" value="вводить матриці" style="ellipse;whiteSpace=wrap;html=1;" vertex="1" parent="1">
          <mxGeometry x="440" y="490" width="120" height="80" as="geometry" />
        </mxCell>
        <mxCell id="pnc7bbZg3f2_Gpb_w_wm-3" value="множить матриці" style="ellipse;whiteSpace=wrap;html=1;" vertex="1" parent="1">
          <mxGeometry x="440" y="310" width="120" height="80" as="geometry" />
        </mxCell>
        <mxCell id="pnc7bbZg3f2_Gpb_w_wm-8" value="" style="endArrow=none;html=1;rounded=0;exitX=0.5;exitY=0.5;exitDx=0;exitDy=0;exitPerimeter=0;entryX=1;entryY=0;entryDx=0;entryDy=0;" edge="1" parent="1" source="pnc7bbZg3f2_Gpb_w_wm-1" target="pnc7bbZg3f2_Gpb_w_wm-2">
          <mxGeometry width="50" height="50" relative="1" as="geometry">
            <mxPoint x="390" y="580" as="sourcePoint" />
            <mxPoint x="440" y="530" as="targetPoint" />
          </mxGeometry>
        </mxCell>
        <mxCell id="pnc7bbZg3f2_Gpb_w_wm-9" value="" style="endArrow=none;html=1;rounded=0;entryX=0.5;entryY=0.5;entryDx=0;entryDy=0;entryPerimeter=0;exitX=1;exitY=0.5;exitDx=0;exitDy=0;" edge="1" parent="1" source="pnc7bbZg3f2_Gpb_w_wm-3" target="pnc7bbZg3f2_Gpb_w_wm-1">
          <mxGeometry width="50" height="50" relative="1" as="geometry">
            <mxPoint x="560" y="440" as="sourcePoint" />
            <mxPoint x="610" y="390" as="targetPoint" />
          </mxGeometry>
        </mxCell>
        <mxCell id="pnc7bbZg3f2_Gpb_w_wm-11" value="include" style="endArrow=open;endSize=12;dashed=1;html=1;rounded=0;exitX=0.45;exitY=1.025;exitDx=0;exitDy=0;exitPerimeter=0;" edge="1" parent="1" source="pnc7bbZg3f2_Gpb_w_wm-3" target="pnc7bbZg3f2_Gpb_w_wm-2">
          <mxGeometry width="160" relative="1" as="geometry">
            <mxPoint x="330" y="460" as="sourcePoint" />
            <mxPoint x="490" y="460" as="targetPoint" />
          </mxGeometry>
        </mxCell>
      </root>
    </mxGraphModel>
  </diagram>
</mxfile>
